<svg xmlns="http://www.w3.org/2000/svg" viewBox="0 0 760 540" role="img"><title>客戶與案件管理系統｜說明圖</title><defs><style>text{font-family:"Arial Unicode MS",sans-serif;fill:#eef8ff;text-anchor:middle;font-size:16px}.sub{fill:#aac0d5;font-size:13px}</style><pattern id="grid" width="40" height="40" patternUnits="userSpaceOnUse"><path d="M40 0H0V40" fill="none" stroke="#1e293b"/></pattern><marker id="arrow" markerWidth="10" markerHeight="7" refX="9" refY="3.5" orient="auto"><polygon points="0 0,10 3.5,0 7" fill="#60a5fa"/></marker></defs><rect width="760" height="540" fill="#0f172a"/><rect width="760" height="540" fill="url(#grid)"/><text x="380" y="40" style="font-size:22px;font-weight:700">客戶與案件管理系統｜說明圖</text><path d="M380 160V215" fill="none" stroke="#60a5fa" stroke-width="2" marker-end="url(#arrow)"/><path d="M380 215H115V250" fill="none" stroke="#60a5fa" stroke-width="2" marker-end="url(#arrow)"/><path d="M380 215H295V250" fill="none" stroke="#60a5fa" stroke-width="2" marker-end="url(#arrow)"/><path d="M380 215H475V250" fill="none" stroke="#60a5fa" stroke-width="2" marker-end="url(#arrow)"/><path d="M380 215H655V250" fill="none" stroke="#60a5fa" stroke-width="2" marker-end="url(#arrow)"/><path d="M115 320V370H380V420" fill="none" stroke="#60a5fa" stroke-width="2" marker-end="url(#arrow)"/><path d="M295 320V370" fill="none" stroke="#60a5fa" stroke-width="2" marker-end="url(#arrow)"/><path d="M475 320V370H380" fill="none" stroke="#60a5fa" stroke-width="2" marker-end="url(#arrow)"/><path d="M655 320V370H380" fill="none" stroke="#60a5fa" stroke-width="2" marker-end="url(#arrow)"/><rect x="190" y="90" width="380" height="70" rx="12" fill="#0f172a"/><rect x="190" y="90" width="380" height="70" rx="12" fill="#143247" stroke="#60a5fa" stroke-width="2"/><text x="380.0" y="120">管理系統使用情境</text><text class="sub" x="380.0" y="143">讓每個案件都有下一次跟進</text><rect x="40" y="250" width="150" height="70" rx="12" fill="#0f172a"/><rect x="40" y="250" width="150" height="70" rx="12" fill="#143247" stroke="#22d3ee" stroke-width="2"/><text x="115.0" y="280">客戶名單</text><text class="sub" x="115.0" y="303">依 PRD 確認範圍</text><rect x="220" y="250" width="150" height="70" rx="12" fill="#0f172a"/><rect x="220" y="250" width="150" height="70" rx="12" fill="#143247" stroke="#22d3ee" stroke-width="2"/><text x="295.0" y="280">案件清單</text><text class="sub" x="295.0" y="303">依 PRD 確認範圍</text><rect x="400" y="250" width="150" height="70" rx="12" fill="#0f172a"/><rect x="400" y="250" width="150" height="70" rx="12" fill="#143247" stroke="#22d3ee" stroke-width="2"/><text x="475.0" y="280">跟進紀錄</text><text class="sub" x="475.0" y="303">依 PRD 確認範圍</text><rect x="580" y="250" width="150" height="70" rx="12" fill="#0f172a"/><rect x="580" y="250" width="150" height="70" rx="12" fill="#143247" stroke="#22d3ee" stroke-width="2"/><text x="655.0" y="280">管理總覽</text><text class="sub" x="655.0" y="303">依 PRD 確認範圍</text><rect x="160" y="420" width="440" height="70" rx="12" fill="#0f172a"/><rect x="160" y="420" width="440" height="70" rx="12" fill="#143247" stroke="#a78bfa" stroke-width="2"/><text x="380.0" y="450">資料保存與驗收</text><text class="sub" x="380.0" y="473">操作成功與資料結果分別驗證</text></svg>